<svg width="21" height="17" viewBox="0 0 21 17" fill="none" xmlns="http://www.w3.org/2000/svg">
	<path d="M15.6523 0H5.65234C2.65234 0 0.652344 1.5 0.652344 5V12C0.652344 15.5 2.65234 17 5.65234 17H15.6523C18.6523 17 20.6523 15.5 20.6523 12V5C20.6523 1.5 18.6523 0 15.6523 0ZM16.1223 6.09L12.9923 8.59C12.3323 9.12 11.4923 9.38 10.6523 9.38C9.81234 9.38 8.96234 9.12 8.31234 8.59L5.18234 6.09C4.86234 5.83 4.81234 5.35 5.06234 5.03C5.32234 4.71 5.79234 4.65 6.11234 4.91L9.24234 7.41C10.0023 8.02 11.2923 8.02 12.0523 7.41L15.1823 4.91C15.5023 4.65 15.9823 4.7 16.2323 5.03C16.4923 5.35 16.4423 5.83 16.1223 6.09Z" fill="white"></path>
</svg>