<svg width="21" height="20" viewBox="0 0 21 20" fill="none" xmlns="http://www.w3.org/2000/svg">
	<path d="M9.70234 12.95L7.85234 14.8C7.46234 15.19 6.84234 15.19 6.44234 14.81C6.33234 14.7 6.22234 14.6 6.11234 14.49C5.08234 13.45 4.15234 12.36 3.32234 11.22C2.50234 10.08 1.84234 8.94 1.36234 7.81C0.892344 6.67 0.652344 5.58 0.652344 4.54C0.652344 3.86 0.772344 3.21 1.01234 2.61C1.25234 2 1.63234 1.44 2.16234 0.94C2.80234 0.31 3.50234 0 4.24234 0C4.52234 0 4.80234 0.0600001 5.05234 0.18C5.31234 0.3 5.54234 0.48 5.72234 0.74L8.04234 4.01C8.22234 4.26 8.35234 4.49 8.44234 4.71C8.53234 4.92 8.58234 5.13 8.58234 5.32C8.58234 5.56 8.51234 5.8 8.37234 6.03C8.24234 6.26 8.05234 6.5 7.81234 6.74L7.05234 7.53C6.94234 7.64 6.89234 7.77 6.89234 7.93C6.89234 8.01 6.90234 8.08 6.92234 8.16C6.95234 8.24 6.98234 8.3 7.00234 8.36C7.18234 8.69 7.49234 9.12 7.93234 9.64C8.38234 10.16 8.86234 10.69 9.38234 11.22C9.48234 11.32 9.59234 11.42 9.69234 11.52C10.0923 11.91 10.1023 12.55 9.70234 12.95ZM20.6219 16.3291C20.6219 16.6091 20.5719 16.8991 20.4719 17.1791C20.4419 17.2591 20.4119 17.3391 20.3719 17.4191C20.2019 17.7791 19.9819 18.1191 19.6919 18.4391C19.2019 18.9791 18.6619 19.3691 18.0519 19.6191C18.0419 19.6191 18.0319 19.6291 18.0219 19.6291C17.4319 19.8691 16.7919 19.9991 16.1019 19.9991C15.0819 19.9991 13.9919 19.7591 12.8419 19.2691C11.6919 18.7791 10.5419 18.1191 9.40194 17.2891C9.01194 16.9991 8.62195 16.7091 8.25195 16.3991L11.5219 13.1291C11.8019 13.3391 12.0519 13.4991 12.2619 13.6091C12.3119 13.6291 12.3719 13.6591 12.4419 13.6891C12.5219 13.7191 12.6019 13.7291 12.6919 13.7291C12.8619 13.7291 12.9919 13.6691 13.1019 13.5591L13.8619 12.8091C14.1119 12.5591 14.3519 12.3691 14.5819 12.2491C14.8119 12.1091 15.0419 12.0391 15.2919 12.0391C15.4819 12.0391 15.6819 12.0791 15.9019 12.1691C16.1219 12.2591 16.3519 12.3891 16.6019 12.5591L19.9119 14.9091C20.1719 15.0891 20.3519 15.2991 20.4619 15.5491C20.5619 15.7991 20.6219 16.0491 20.6219 16.3291Z" fill="white"></path>
</svg>