<?xml version="1.0" standalone="no"?>
<!DOCTYPE svg PUBLIC "-//W3C//DTD SVG 20010904//EN"
 "http://www.w3.org/TR/2001/REC-SVG-20010904/DTD/svg10.dtd">
<svg version="1.0" xmlns="http://www.w3.org/2000/svg"
 width="384.000000pt" height="394.000000pt" viewBox="0 0 384.000000 394.000000"
 preserveAspectRatio="xMidYMid meet">

<g transform="translate(0.000000,394.000000) scale(0.100000,-0.100000)"
fill="#4ab3bc" stroke="none">
<path d="M1040 2116 l0 -676 85 0 85 0 0 586 0 586 293 -4 292 -3 59 -29 c164
-80 215 -251 118 -395 -32 -47 -119 -107 -172 -118 -52 -12 -279 -8 -326 6
-62 17 -106 51 -131 101 l-23 44 0 -45 c0 -101 76 -223 167 -269 45 -24 57
-25 208 -25 152 1 163 2 226 28 51 22 82 44 131 95 77 80 112 137 132 217 61
232 -62 459 -294 545 -63 23 -74 24 -457 28 l-393 4 0 -676z"/>
<path d="M2504 2471 c-59 -27 -112 -77 -142 -135 -34 -68 -37 -178 -6 -246 24
-52 97 -130 146 -157 46 -25 190 -25 235 0 48 26 119 102 144 154 34 70 32
171 -5 246 -32 66 -104 130 -164 147 -59 16 -162 12 -208 -9z m183 -168 c12
-8 29 -30 38 -50 22 -46 8 -100 -36 -137 -46 -39 -99 -36 -147 8 -32 30 -37
41 -37 78 0 99 99 154 182 101z"/>
<path d="M1492 2461 c-96 -33 -142 -95 -142 -189 0 -90 46 -148 142 -177 l47
-14 -19 32 c-26 43 -26 101 1 139 35 48 72 58 219 58 l130 0 0 85 0 85 -162 0
c-131 -1 -173 -4 -216 -19z"/>
<path d="M2037 1947 c-26 -24 -65 -50 -87 -57 -48 -16 -61 -30 -28 -30 80 0
128 -129 71 -192 -39 -44 -67 -48 -353 -48 l-270 0 0 -91 0 -91 298 4 c296 3
297 3 353 29 68 32 118 81 150 145 19 39 24 65 24 129 0 89 -19 139 -78 208
l-33 39 -47 -45z"/>
<path d="M2427 1143 c-4 -3 -7 -15 -7 -25 0 -26 24 -17 28 10 3 21 -8 29 -21
15z"/>
<path d="M2816 1143 c-3 -4 -6 -24 -6 -46 0 -39 0 -40 20 -22 23 21 27 60 6
68 -8 3 -17 3 -20 0z"/>
<path d="M1304 1123 c-12 -2 -34 -18 -50 -34 -24 -25 -29 -39 -29 -79 0 -55
20 -84 73 -107 45 -19 104 -3 131 36 28 39 28 109 1 144 -17 22 -81 51 -100
46 -3 -1 -15 -4 -26 -6z m80 -54 c20 -16 26 -29 26 -59 0 -30 -6 -43 -26 -59
-35 -28 -56 -26 -93 5 -40 33 -40 66 -2 105 35 34 59 36 95 8z"/>
<path d="M2497 1123 c-11 -10 -8 -168 3 -197 5 -14 19 -30 30 -36 30 -16 70
-5 70 19 0 14 -5 18 -20 14 -33 -9 -50 14 -50 68 0 48 1 49 30 49 23 0 30 4
30 20 0 16 -7 20 -30 20 -25 0 -30 4 -30 25 0 24 -18 34 -33 18z"/>
<path d="M1032 1013 l3 -108 61 -3 c46 -2 66 1 78 13 17 17 21 62 8 81 -12 19
-49 34 -81 34 -26 0 -31 4 -31 25 0 22 4 25 35 25 24 0 35 -5 35 -15 0 -8 9
-19 20 -25 18 -10 20 -8 20 18 0 44 -27 62 -94 62 l-57 0 3 -107z m116 -51 c4
-26 -17 -37 -53 -28 -18 5 -25 13 -25 32 0 23 3 25 38 22 30 -2 38 -7 40 -26z"/>
<path d="M1476 1104 c-3 -9 -6 -18 -6 -20 0 -2 29 -4 64 -4 70 0 91 -12 103
-58 8 -33 -15 -74 -49 -86 -46 -16 -58 -3 -58 64 0 53 -2 60 -20 60 -18 0 -20
-7 -20 -80 l0 -80 63 0 c56 0 66 3 89 28 34 35 43 72 28 116 -17 53 -56 76
-128 76 -45 0 -61 -4 -66 -16z"/>
<path d="M1690 1115 c0 -3 18 -34 40 -69 32 -50 40 -73 40 -110 0 -25 4 -46 8
-46 19 0 32 27 31 65 -1 51 -65 158 -97 163 -12 2 -22 1 -22 -3z"/>
<path d="M1820 1084 c-20 -35 -21 -64 -1 -64 8 0 61 81 61 94 0 3 -9 6 -19 6
-11 0 -28 -15 -41 -36z"/>
<path d="M2013 1080 c-53 -21 -46 -79 12 -107 19 -9 35 -23 35 -30 0 -15 -36
-18 -45 -3 -3 6 -15 10 -26 10 -24 0 -24 -15 1 -40 37 -37 110 -14 110 35 0
27 -9 37 -59 66 -25 15 -31 23 -23 31 9 9 17 7 31 -6 21 -19 41 -14 41 9 0 8
-10 21 -22 29 -25 18 -25 18 -55 6z"/>
<path d="M2236 1059 c-23 -57 -26 -73 -16 -89 9 -13 12 -12 25 4 14 19 15 19
21 0 21 -57 34 -84 43 -84 5 0 23 35 39 78 17 42 33 85 37 95 5 13 2 17 -13
17 -14 0 -25 -14 -41 -52 l-22 -53 -19 49 c-27 70 -37 76 -54 35z"/>
<path d="M2141 1028 c12 -29 28 -72 37 -95 17 -46 42 -58 41 -20 0 12 -13 54
-28 92 -22 52 -34 71 -50 73 l-21 3 21 -53z"/>
<path d="M2420 985 c0 -78 3 -95 15 -95 12 0 15 17 15 95 0 78 -3 95 -15 95
-12 0 -15 -17 -15 -95z"/>
<path d="M2659 1065 c-14 -8 -32 -28 -39 -44 -35 -86 66 -167 145 -115 20 13
23 19 14 36 -10 18 -12 19 -29 3 -26 -24 -71 -16 -89 16 -13 24 -13 29 2 53
20 30 67 36 87 11 17 -21 30 -19 30 4 0 43 -70 64 -121 36z"/>
<path d="M2841 1063 c-37 -31 -42 -173 -6 -173 12 0 15 14 15 65 0 58 3 66 25
81 38 25 54 6 57 -74 2 -54 6 -67 21 -70 15 -3 17 5 17 70 0 93 -15 118 -69
118 -22 0 -48 -8 -60 -17z"/>
</g>
</svg>
