<svg width="90" height="90" viewBox="0 0 90 90" fill="none" xmlns="http://www.w3.org/2000/svg">
<path d="M55.6659 19.5V24.8333M58.3326 22.1667H52.9993M34.3326 38.1667V40.8333M35.6659 39.5H32.9993M42.2486 36.1667C42.1296 35.7052 41.8891 35.2841 41.5521 34.9472C41.2151 34.6102 40.794 34.3697 40.3326 34.2507L32.1526 32.1413C32.013 32.1017 31.8902 32.0177 31.8028 31.9019C31.7153 31.7862 31.668 31.6451 31.668 31.5C31.668 31.3549 31.7153 31.2138 31.8028 31.0981C31.8902 30.9823 32.013 30.8983 32.1526 30.8587L40.3326 28.748C40.7939 28.6291 41.2149 28.3888 41.5518 28.052C41.8888 27.7153 42.1294 27.2945 42.2486 26.8333L44.3579 18.6533C44.3971 18.5132 44.4811 18.3898 44.597 18.3018C44.7129 18.2139 44.8544 18.1663 44.9999 18.1663C45.1454 18.1663 45.2869 18.2139 45.4028 18.3018C45.5188 18.3898 45.6027 18.5132 45.6419 18.6533L47.7499 26.8333C47.869 27.2947 48.1095 27.7158 48.4464 28.0528C48.7834 28.3898 49.2045 28.6303 49.6659 28.7493L57.8459 30.8573C57.9866 30.8961 58.1107 30.98 58.1991 31.0961C58.2875 31.2122 58.3353 31.3541 58.3353 31.5C58.3353 31.6459 58.2875 31.7878 58.1991 31.9039C58.1107 32.02 57.9866 32.1039 57.8459 32.1427L49.6659 34.2507C49.2045 34.3697 48.7834 34.6102 48.4464 34.9472C48.1095 35.2841 47.869 35.7052 47.7499 36.1667L45.6406 44.3467C45.6014 44.4868 45.5174 44.6102 45.4015 44.6981C45.2856 44.7861 45.1441 44.8337 44.9986 44.8337C44.8531 44.8337 44.7116 44.7861 44.5957 44.6981C44.4798 44.6102 44.3958 44.4868 44.3566 44.3467L42.2486 36.1667Z" stroke="#108389" stroke-width="3.2" stroke-linecap="round" stroke-linejoin="round"/>
<path d="M36.4766 57.7656V71.9062H34.7266V57.7656H36.4766ZM28.8672 58.7969C30.9922 58.7969 32.5391 60.7344 32.5547 63.7812C32.5391 66.8594 30.9922 68.7812 28.8672 68.7812C26.7266 68.7812 25.1797 66.8594 25.1797 63.7812C25.1797 60.7344 26.7266 58.7969 28.8672 58.7969ZM28.8672 60.3594C27.6641 60.3594 26.8516 61.625 26.8516 63.7812C26.8516 65.9531 27.6641 67.2188 28.8672 67.2188C30.0547 67.2188 30.8672 65.9531 30.8672 63.7812C30.8672 61.625 30.0547 60.3594 28.8672 60.3594ZM50.6328 57.7656V68.4531H48.9766V57.7656H50.6328ZM47.8203 58.0156V68.0156H46.1797V63.1406H44.6797V65.9219H39.1016V58.875H40.7422V61.1094H43.0703V58.875H44.6797V61.7344H46.1797V58.0156H47.8203ZM40.7422 64.5156H43.0703V62.4375H40.7422V64.5156ZM51.0234 70.2031V71.6094H41.1797V67.0312H42.9141V70.2031H51.0234ZM63.8672 65.1719V66.5469H53.9609V58.875H63.7422V60.2812H55.7266V61.9844H63.4141V63.3438H55.7266V65.1719H63.8672ZM65.2891 68.75V70.1719H52.3828V68.75H65.2891Z" fill="#108389"/>
</svg>
