<svg width="90" height="90" viewBox="0 0 90 90" fill="none" xmlns="http://www.w3.org/2000/svg">
<rect width="90" height="90" rx="8" fill="#E6E6E6"/>
<path d="M43.666 38.1666L46.3327 40.8333C46.5953 41.096 46.9071 41.3043 47.2503 41.4464C47.5935 41.5886 47.9612 41.6617 48.3327 41.6617C48.7041 41.6617 49.0719 41.5886 49.4151 41.4464C49.7582 41.3043 50.07 41.096 50.3327 40.8333C50.5953 40.5707 50.8037 40.2589 50.9458 39.9157C51.088 39.5725 51.1611 39.2047 51.1611 38.8333C51.1611 38.4619 51.088 38.0941 50.9458 37.7509C50.8037 37.4078 50.5953 37.096 50.3327 36.8333" stroke="#0A585C" stroke-width="3.2" stroke-linecap="round" stroke-linejoin="round"/>
<path d="M47.667 34.1667L51.0003 37.5C51.5307 38.0304 52.2502 38.3284 53.0003 38.3284C53.7504 38.3284 54.4699 38.0304 55.0003 37.5C55.5307 36.9696 55.8287 36.2501 55.8287 35.5C55.8287 34.7499 55.5307 34.0304 55.0003 33.5L49.827 28.3267C49.077 27.5776 48.0603 27.1569 47.0003 27.1569C45.9403 27.1569 44.9236 27.5776 44.1736 28.3267L43.0003 29.5C42.4699 30.0304 41.7504 30.3284 41.0003 30.3284C40.2502 30.3284 39.5307 30.0304 39.0003 29.5C38.4699 28.9696 38.1719 28.2501 38.1719 27.5C38.1719 26.7499 38.4699 26.0304 39.0003 25.5L42.747 21.7533C43.9633 20.5402 45.5495 19.7674 47.2545 19.5573C48.9595 19.3472 50.6859 19.7118 52.1603 20.5933L52.787 20.9667C53.3547 21.3093 54.0297 21.4282 54.6803 21.3L57.0003 20.8333" stroke="#0A585C" stroke-width="3.2" stroke-linecap="round" stroke-linejoin="round"/>
<path d="M56.9993 19.4998L58.3327 34.1665H55.666M32.9993 19.4998L31.666 34.1665L40.3327 42.8331C40.8631 43.3636 41.5825 43.6616 42.3327 43.6616C43.0828 43.6616 43.8022 43.3636 44.3327 42.8331C44.8631 42.3027 45.1611 41.5833 45.1611 40.8331C45.1611 40.083 44.8631 39.3636 44.3327 38.8331M32.9993 20.8332H43.666" stroke="#0A585C" stroke-width="3.2" stroke-linecap="round" stroke-linejoin="round"/>
<path d="M28.9375 64.1875V65.5625H24.75V68.7969H30.375V70.2188H17.4688V68.7969H23.0312V65.5625H19.0312V58.8125H28.8281V60.2031H20.7656V64.1875H28.9375ZM43.0625 57.7656V65.3438H41.3125V57.7656H43.0625ZM35.4375 66V67.4531H41.3281V66H43.0625V71.7188H33.7188V66H35.4375ZM35.4375 70.3125H41.3281V68.8125H35.4375V70.3125ZM35.3594 58.3906C37.5312 58.375 39.1562 59.7344 39.1562 61.7031C39.1562 63.625 37.5312 64.9844 35.3594 64.9844C33.1719 64.9844 31.5469 63.625 31.5469 61.7031C31.5469 59.7344 33.1719 58.375 35.3594 58.3906ZM35.3594 59.8438C34.125 59.8438 33.2344 60.5625 33.25 61.7031C33.2344 62.8281 34.125 63.5469 35.3594 63.5625C36.5781 63.5469 37.4531 62.8281 37.4531 61.7031C37.4531 60.5625 36.5781 59.8438 35.3594 59.8438ZM58.0156 64.8281V66.2188H52.5625V68.8125H50.8438V66.2188H45.1094V64.8281H58.0156ZM56.3594 58.4062V63.5156H46.75V58.4062H56.3594ZM48.4375 59.7656V62.1562H54.6406V59.7656H48.4375ZM56.5938 70.2031V71.6094H46.6719V67.5156H48.4062V70.2031H56.5938ZM63.5312 58.75C65.7656 58.7344 67.4062 60.1562 67.4219 62.1562C67.4062 64.1719 65.7656 65.5781 63.5312 65.5781C61.3125 65.5781 59.6562 64.1719 59.6562 62.1562C59.6562 60.1562 61.3125 58.7344 63.5312 58.75ZM63.5312 60.25C62.2969 60.25 61.375 60.9844 61.375 62.1562C61.375 63.3438 62.2969 64.0625 63.5312 64.0625C64.7812 64.0625 65.7188 63.3438 65.7188 62.1562C65.7188 60.9844 64.7812 60.25 63.5312 60.25ZM70.7188 57.7656V71.9062H68.9844V57.7656H70.7188ZM59.0156 67.5312C61.5625 67.5312 65.0938 67.5 68.1406 67.0625L68.2812 68.3281C65.1094 68.9375 61.7188 68.9531 59.2344 68.9531L59.0156 67.5312Z" fill="#0A585C"/>
</svg>
