<svg width="90" height="90" viewBox="0 0 90 90" fill="none" xmlns="http://www.w3.org/2000/svg">
<path d="M45.0006 19.5C52.734 19.5 59.002 24.3853 59.002 30.4133C59.002 36.44 52.734 41.3253 45.002 41.3253C44.2321 41.324 43.4631 41.275 42.6993 41.1787L36.822 45.0227C36.154 45.376 35.918 45.3373 36.1926 44.472L37.382 39.568C33.542 37.6213 31.002 34.248 31.002 30.4133C31.002 24.3867 37.2686 19.5 45.002 19.5M52.8793 30.2467L54.8393 28.348C54.9524 28.2305 55.0155 28.0738 55.0153 27.9107C55.0151 27.7477 54.9516 27.5911 54.8382 27.4739C54.7249 27.3567 54.5704 27.2881 54.4075 27.2825C54.2445 27.2769 54.0857 27.3348 53.9646 27.444L51.394 29.932V27.876C51.394 27.7091 51.3276 27.549 51.2096 27.431C51.0916 27.313 50.9315 27.2467 50.7646 27.2467C50.5977 27.2467 50.4376 27.313 50.3196 27.431C50.2016 27.549 50.1353 27.7091 50.1353 27.876V31.2853C50.1131 31.3828 50.1131 31.4839 50.1353 31.5813V33.5C50.1353 33.6669 50.2016 33.827 50.3196 33.945C50.4376 34.063 50.5977 34.1293 50.7646 34.1293C50.9315 34.1293 51.0916 34.063 51.2096 33.945C51.3276 33.827 51.394 33.6669 51.394 33.5V31.6827L51.9633 31.132L53.8673 33.8427C53.9148 33.9103 53.9752 33.968 54.045 34.0123C54.1149 34.0567 54.1927 34.0868 54.2742 34.101C54.3557 34.1153 54.4391 34.1133 54.5199 34.0953C54.6006 34.0773 54.6769 34.0435 54.7446 33.996C54.8123 33.9485 54.8699 33.8881 54.9143 33.8182C54.9586 33.7484 54.9888 33.6706 55.003 33.5891C55.0172 33.5076 55.0153 33.4241 54.9973 33.3434C54.9792 33.2627 54.9455 33.1863 54.898 33.1187L52.8793 30.2467ZM48.9353 32.812H46.9886V27.896C46.9812 27.7343 46.9117 27.5816 46.7946 27.4698C46.6775 27.358 46.5218 27.2956 46.36 27.2956C46.1981 27.2956 46.0424 27.358 45.9253 27.4698C45.8082 27.5816 45.7387 27.7343 45.7313 27.896V33.4413C45.7313 33.788 46.0113 34.0707 46.3593 34.0707H48.9353C49.1022 34.0707 49.2623 34.0044 49.3803 33.8863C49.4983 33.7683 49.5646 33.6082 49.5646 33.4413C49.5646 33.2744 49.4983 33.1144 49.3803 32.9963C49.2623 32.8783 49.1022 32.812 48.9353 32.812ZM41.126 31.3573L42.054 29.08L42.9046 31.356L41.126 31.3573ZM44.49 32.0067L44.4926 31.9853C44.4922 31.8268 44.4317 31.6744 44.3233 31.5587L42.9286 27.8253C42.8702 27.6474 42.7588 27.4916 42.6094 27.3787C42.46 27.2657 42.2797 27.2011 42.0926 27.1933C41.9043 27.1932 41.7204 27.2501 41.565 27.3565C41.4096 27.4629 41.29 27.6138 41.222 27.7893L39.006 33.2227C38.9428 33.3772 38.9437 33.5505 39.0083 33.7044C39.073 33.8583 39.1961 33.9802 39.3506 34.0433C39.5052 34.1065 39.6784 34.1056 39.8323 34.041C39.9862 33.9763 40.1082 33.8532 40.1713 33.6987L40.614 32.6147H43.374L43.7713 33.6813C43.7984 33.7611 43.8412 33.8345 43.8972 33.8974C43.9533 33.9603 44.0213 34.0113 44.0974 34.0474C44.1735 34.0835 44.2561 34.1039 44.3402 34.1075C44.4243 34.1111 44.5083 34.0978 44.5872 34.0684C44.6661 34.0389 44.7383 33.9939 44.7995 33.9361C44.8607 33.8782 44.9096 33.8087 44.9435 33.7316C44.9773 33.6544 44.9953 33.5713 44.9964 33.4871C44.9975 33.4029 44.9817 33.3193 44.95 33.2413L44.49 32.0067ZM40.0593 27.9027C40.0596 27.82 40.0436 27.7382 40.0122 27.6617C39.9808 27.5853 39.9346 27.5158 39.8762 27.4573C39.8178 27.3989 39.7485 27.3525 39.6721 27.3209C39.5958 27.2893 39.5139 27.2732 39.4313 27.2733H35.1046C34.9377 27.2733 34.7776 27.3396 34.6596 27.4577C34.5416 27.5757 34.4753 27.7358 34.4753 27.9027C34.4753 28.0696 34.5416 28.2297 34.6596 28.3477C34.7776 28.4657 34.9377 28.532 35.1046 28.532H36.6513V33.5133C36.6513 33.6802 36.7176 33.8403 36.8356 33.9583C36.9536 34.0764 37.1137 34.1427 37.2806 34.1427C37.4475 34.1427 37.6076 34.0764 37.7256 33.9583C37.8436 33.8403 37.91 33.6802 37.91 33.5133V28.532H39.43C39.5127 28.5324 39.5947 28.5163 39.6712 28.4848C39.7477 28.4533 39.8172 28.407 39.8757 28.3485C39.9343 28.29 39.9806 28.2204 40.0121 28.1439C40.0436 28.0674 40.0596 27.9854 40.0593 27.9027Z" fill="#108389"/>
<path d="M11.3125 59.1562C11.3125 63.4219 10.1406 67.0781 4.9375 69.6719L3.98438 68.3594C6.42969 67.1484 7.88281 65.7422 8.70312 64.0625L4.3125 64.4844L4.09375 62.9844L9.23438 62.6562C9.41406 62 9.52344 61.3047 9.57812 60.5625H4.82812V59.1562H11.3125ZM15.0312 57.7656V63.2969H17.125V64.7188H15.0312V71.8594H13.2969V57.7656H15.0312ZM25.1406 59.1562C25.1406 63.4219 23.9688 67.0781 18.7656 69.6719L17.8125 68.3594C20.2578 67.1484 21.7109 65.7422 22.5312 64.0625L18.1406 64.4844L17.9219 62.9844L23.0625 62.6562C23.2422 62 23.3516 61.3047 23.4062 60.5625H18.6562V59.1562H25.1406ZM28.8594 57.7656V63.2969H30.9531V64.7188H28.8594V71.8594H27.125V57.7656H28.8594ZM38.0469 58.5625C41.0781 58.5625 43.3125 60.0781 43.3125 62.375C43.3125 64.4922 41.4922 65.9062 38.9062 66.1562V68.75H44.5312V70.1719H31.625V68.75H37.1875V66.1562C34.6172 65.9062 32.7969 64.4922 32.8125 62.375C32.7969 60.0781 35.0312 58.5625 38.0469 58.5625ZM38.0469 59.9688C35.9844 59.9531 34.5 60.8906 34.5156 62.375C34.5 63.9062 35.9844 64.8125 38.0469 64.8125C40.1406 64.8125 41.6094 63.9062 41.6094 62.375C41.6094 60.8906 40.1406 59.9531 38.0469 59.9688ZM58.3281 65.2969V66.6719H45.4219V65.2969H51V64.1094H47.0781V58.1094H56.7812V59.4688H48.8125V60.4375H56.4375V61.7344H48.8125V62.7812H56.8906V64.1094H52.7344V65.2969H58.3281ZM56.7031 67.6719V71.8906H54.9531V69.0469H46.875V67.6719H56.7031ZM72.1719 64.8281V66.2188H66.7188V68.8125H65V66.2188H59.2656V64.8281H72.1719ZM70.5156 58.4062V63.5156H60.9062V58.4062H70.5156ZM62.5938 59.7656V62.1562H68.7969V59.7656H62.5938ZM70.75 70.2031V71.6094H60.8281V67.5156H62.5625V70.2031H70.75ZM77.6875 58.75C79.9219 58.7344 81.5625 60.1562 81.5781 62.1562C81.5625 64.1719 79.9219 65.5781 77.6875 65.5781C75.4688 65.5781 73.8125 64.1719 73.8125 62.1562C73.8125 60.1562 75.4688 58.7344 77.6875 58.75ZM77.6875 60.25C76.4531 60.25 75.5312 60.9844 75.5312 62.1562C75.5312 63.3438 76.4531 64.0625 77.6875 64.0625C78.9375 64.0625 79.875 63.3438 79.875 62.1562C79.875 60.9844 78.9375 60.25 77.6875 60.25ZM84.875 57.7656V71.9062H83.1406V57.7656H84.875ZM73.1719 67.5312C75.7188 67.5312 79.25 67.5 82.2969 67.0625L82.4375 68.3281C79.2656 68.9375 75.875 68.9531 73.3906 68.9531L73.1719 67.5312Z" fill="#108389"/>
</svg>
