<svg width="90" height="90" viewBox="0 0 90 90" fill="none" xmlns="http://www.w3.org/2000/svg">
<path d="M39.666 31.5H39.6793M44.9993 31.5H45.0127M50.3327 31.5H50.346M39.5327 42.1666C42.0775 43.4721 45.0048 43.8256 47.7872 43.1637C50.5696 42.5017 53.0241 40.8678 54.7084 38.5562C56.3926 36.2447 57.1959 33.4076 56.9735 30.5562C56.751 27.7048 55.5175 25.0266 53.4951 23.0042C51.4727 20.9819 48.7945 19.7483 45.9431 19.5259C43.0917 19.3034 40.2546 20.1067 37.9431 21.791C35.6316 23.4752 33.9976 25.9297 33.3356 28.7121C32.6737 31.4945 33.0273 34.4219 34.3327 36.9666L31.666 44.8333L39.5327 42.1666Z" stroke="#108389" stroke-width="3.2" stroke-linecap="round" stroke-linejoin="round"/>
<path d="M24.1719 66.5938C27.2344 66.6094 29.1719 67.5781 29.1875 69.25C29.1719 70.8906 27.2344 71.875 24.1719 71.875C21.125 71.875 19.1719 70.8906 19.1719 69.25C19.1719 67.5781 21.125 66.6094 24.1719 66.5938ZM24.1719 67.9062C22.1406 67.9062 20.9062 68.3906 20.9219 69.25C20.9062 70.0781 22.1406 70.5312 24.1719 70.5312C26.2188 70.5312 27.4531 70.0781 27.4688 69.25C27.4531 68.3906 26.2188 67.9062 24.1719 67.9062ZM29.0938 58.4375V59.6094C29.0938 60.7188 29.0938 61.9062 28.7031 63.3594L26.9844 63.2031C27.3359 61.8281 27.3594 60.8359 27.3594 59.8125H19.3125V58.4375H29.0938ZM30.6562 64.1719V65.5781H17.8438V64.1719H22.8125V61.6094H24.5312V64.1719H30.6562ZM36.9688 61.7812C36.9688 64.0938 38.3281 66.5312 40.6094 67.4844L39.6562 68.8594C37.9844 68.1406 36.7656 66.6562 36.125 64.8594C35.4688 66.7969 34.2344 68.4219 32.5781 69.2031L31.5781 67.8438C33.8125 66.8125 35.2031 64.1875 35.2031 61.7812V60.5938H32.0938V59.1562H40.0625V60.5938H36.9688V61.7812ZM43.3906 57.7656V71.8906H41.6406V57.7656H43.3906ZM50.5156 61.1562C50.5 63.6719 51.7656 66.2344 53.9531 67.2812L52.8906 68.6719C51.3594 67.8984 50.2578 66.4062 49.6562 64.6094C49.0391 66.5312 47.8828 68.125 46.2656 68.9375L45.2031 67.5469C47.4688 66.4688 48.7656 63.7656 48.7812 61.1562V58.9062H50.5156V61.1562ZM56.5312 57.7656V63.2969H58.7031V64.7812H56.5312V71.8906H54.7969V57.7656H56.5312ZM70.4375 57.7656V61.4844H72.4062V62.9375H70.4375V66.7812H68.7031V57.7656H70.4375ZM65.875 66.9062C68.7656 66.9062 70.5938 67.8281 70.5938 69.3906C70.5938 70.9375 68.7656 71.875 65.875 71.875C62.9375 71.875 61.1406 70.9375 61.1562 69.3906C61.1406 67.8281 62.9375 66.9062 65.875 66.9062ZM65.875 68.2344C63.9375 68.2344 62.8594 68.6094 62.875 69.3906C62.8594 70.1406 63.9375 70.5625 65.875 70.5625C67.7812 70.5625 68.8594 70.1406 68.8594 69.3906C68.8594 68.6094 67.7812 68.2344 65.875 68.2344ZM67.6875 59.2031V60.5625H59.3125V59.2031H62.6406V57.6719H64.375V59.2031H67.6875ZM63.5 61.125C65.5469 61.125 66.9375 62.1406 66.9531 63.6562C66.9375 65.1719 65.5469 66.1719 63.5 66.1719C61.4375 66.1719 60.0312 65.1719 60.0312 63.6562C60.0312 62.1406 61.4375 61.125 63.5 61.125ZM63.5 62.4062C62.4219 62.4062 61.7188 62.875 61.7188 63.6562C61.7188 64.4219 62.4219 64.8594 63.5 64.8594C64.5781 64.8594 65.2969 64.4219 65.2969 63.6562C65.2969 62.875 64.5781 62.4062 63.5 62.4062Z" fill="#108389"/>
</svg>
