<svg width="90" height="90" viewBox="0 0 90 90" fill="none" xmlns="http://www.w3.org/2000/svg">
<rect width="90" height="90" rx="8" fill="#E6E6E6"/>
<path d="M48.9993 36.8333H52.9993C53.3771 36.8333 53.694 36.7053 53.95 36.4493C54.206 36.1933 54.3336 35.8769 54.3327 35.5V27.5C54.3327 27.1222 54.2047 26.8058 53.9487 26.5506C53.6927 26.2955 53.3762 26.1675 52.9993 26.1666H48.9993C48.6216 26.1666 48.3051 26.2946 48.05 26.5506C47.7949 26.8066 47.6669 27.1231 47.666 27.5V35.5C47.666 35.8778 47.794 36.1946 48.05 36.4506C48.306 36.7066 48.6225 36.8342 48.9993 36.8333ZM50.3327 34.1666V28.8333H51.666V34.1666H50.3327ZM40.9993 36.8333H44.9993C45.3771 36.8333 45.694 36.7053 45.95 36.4493C46.206 36.1933 46.3336 35.8769 46.3327 35.5V27.5C46.3327 27.1222 46.2047 26.8058 45.9487 26.5506C45.6927 26.2955 45.3762 26.1675 44.9993 26.1666H40.9993C40.6216 26.1666 40.3051 26.2946 40.05 26.5506C39.7949 26.8066 39.6669 27.1231 39.666 27.5V35.5C39.666 35.8778 39.794 36.1946 40.05 36.4506C40.306 36.7066 40.6225 36.8342 40.9993 36.8333ZM42.3327 34.1666V28.8333H43.666V34.1666H42.3327ZM38.3327 35.5V27.5C38.3327 27.1222 38.2047 26.8058 37.9487 26.5506C37.6927 26.2955 37.3762 26.1675 36.9993 26.1666C36.6225 26.1658 36.306 26.2938 36.05 26.5506C35.794 26.8075 35.666 27.124 35.666 27.5V35.5C35.666 35.8778 35.794 36.1946 36.05 36.4506C36.306 36.7066 36.6225 36.8342 36.9993 36.8333C37.3762 36.8324 37.6931 36.7044 37.95 36.4493C38.2069 36.1942 38.3345 35.8778 38.3327 35.5ZM31.666 39.5V23.5C31.666 22.7666 31.9273 22.1391 32.45 21.6173C32.9727 21.0955 33.6002 20.8342 34.3327 20.8333H55.666C56.3993 20.8333 57.0273 21.0946 57.55 21.6173C58.0727 22.14 58.3336 22.7675 58.3327 23.5V39.5C58.3327 40.2333 58.0718 40.8613 57.55 41.384C57.0282 41.9066 56.4002 42.1675 55.666 42.1666H34.3327C33.5993 42.1666 32.9718 41.9058 32.45 41.384C31.9282 40.8622 31.6669 40.2342 31.666 39.5ZM34.3327 39.5H55.666V23.5H34.3327V39.5Z" fill="#0A585C"/>
<path d="M29.1406 58.4531V59.5469C29.1406 60.6406 29.1406 61.8906 28.7969 63.5625H30.7188V64.9688H17.8125V63.5625H27.0469C27.375 62.0391 27.4062 60.875 27.4062 59.8438H19.4062V58.4531H29.1406ZM29.125 66.6094V71.7188H19.3594V66.6094H29.125ZM21.0625 67.9688V70.3125H27.4062V67.9688H21.0625ZM34.9688 58.6406C36.8438 58.6406 38.2188 60.0469 38.2188 62.0469C38.2188 64.0625 36.8438 65.4375 34.9688 65.4375C33.0938 65.4375 31.7344 64.0625 31.7344 62.0469C31.7344 60.0469 33.0938 58.6406 34.9688 58.6406ZM34.9688 60.125C33.9844 60.125 33.2812 60.8594 33.2969 62.0469C33.2812 63.2188 33.9844 63.9844 34.9688 63.9688C35.9375 63.9844 36.6406 63.2188 36.6406 62.0469C36.6406 60.8594 35.9375 60.125 34.9688 60.125ZM43.7188 57.7812V66.2031H42.0625V62.6719H40.6719V66.1094H39.0625V58.0469H40.6719V61.2812H42.0625V57.7812H43.7188ZM43.7188 66.875V71.8906H41.9844V68.2656H34.0469V66.875H43.7188ZM58.375 68.7656V70.1875H45.4688V68.7656H51.0469V65.5156H52.7812V68.7656H58.375ZM57.2656 58.9062V60.3281H52.8125C52.8672 62.3594 54.9609 64.2266 57.8594 64.6562L57.1719 66.0312C54.7812 65.5938 52.8281 64.3359 51.9219 62.5781C51.0078 64.3594 49.0703 65.6641 46.7188 66.1094L46.0312 64.7344C48.8516 64.2578 50.9297 62.3594 50.9844 60.3281H46.5469V58.9062H57.2656ZM71.0625 57.7656V71.8906H69.3281V57.7656H71.0625ZM59.3594 67.9688C60.4844 67.9609 61.7578 67.9609 63.0938 67.9219V66.625C61.5 66.375 60.4688 65.3984 60.4688 64.0625C60.4688 62.4688 61.875 61.4062 63.9375 61.4062C66.0156 61.4062 67.4531 62.4688 67.4531 64.0625C67.4531 65.3906 66.4141 66.3594 64.8281 66.6094V67.8594C66.0703 67.8047 67.3203 67.7031 68.5 67.5469L68.625 68.8438C65.5156 69.375 62.1562 69.4062 59.6094 69.4062L59.3594 67.9688ZM68.25 59.3906V60.7656H59.6562V59.3906H63.0938V57.8125H64.8281V59.3906H68.25ZM63.9375 62.7344C62.875 62.75 62.1094 63.2344 62.125 64.0625C62.1094 64.875 62.875 65.3594 63.9375 65.3438C65.0469 65.3594 65.7812 64.875 65.7812 64.0625C65.7812 63.2344 65.0469 62.75 63.9375 62.7344Z" fill="#0A585C"/>
</svg>
