<svg preserveAspectRatio="none" width="100%" height="100%" overflow="visible" style="display: block;" viewBox="0 0 19 19" fill="none" xmlns="http://www.w3.org/2000/svg">
<path id="Vector (Stroke)" d="M16.3905 0.390524C16.9112 -0.130175 17.7552 -0.130175 18.2759 0.390524C18.7966 0.911223 18.7966 1.75524 18.2759 2.27594L11.2186 9.33323L18.2759 16.3905L18.3671 16.4921C18.7942 17.0158 18.7641 17.7878 18.2759 18.2759C17.7878 18.7641 17.0158 18.7942 16.4921 18.3671L16.3905 18.2759L9.33323 11.2186L2.27594 18.2759C1.75524 18.7966 0.911223 18.7966 0.390524 18.2759C-0.130175 17.7552 -0.130175 16.9112 0.390524 16.3905L7.44782 9.33323L0.390524 2.27594C-0.130175 1.75524 -0.130175 0.911223 0.390524 0.390524C0.911223 -0.130175 1.75524 -0.130175 2.27594 0.390524L9.33323 7.44782L16.3905 0.390524Z" fill="var(--fill-0, white)"/>
</svg>
