<svg preserveAspectRatio="none" width="100%" height="100%" overflow="visible" style="display: block;" viewBox="0 0 256 28" fill="none" xmlns="http://www.w3.org/2000/svg">
<g id="Group">
<g id="Vector">
<path d="M16.8699 13.2501C19.3872 14.4409 20.9648 16.8264 20.9648 19.7357C20.9648 24.0544 17.2322 27.3254 12.3033 27.3254H0V0.670782H12.058C16.7906 0.670782 20.2439 3.5537 20.2439 7.49179C20.2439 9.87349 18.9079 12.0178 16.8699 13.2501ZM13.6922 18.8614C13.6922 17.4444 12.6506 16.4495 11.0579 16.4495H7.0612V21.2958H11.0579C12.6506 21.2958 13.6922 20.2972 13.6922 18.8614ZM13.2657 8.70901C13.2657 7.32597 12.3185 6.3876 10.7787 6.3876H7.0612V11.0266H10.7787C12.3185 11.0266 13.2657 10.0883 13.2657 8.70524V8.70901Z" fill="var(--fill-0, #4AB3BC)"/>
<path d="M38.1328 28C29.5507 28 23.4292 22.1437 23.4292 14C23.4292 5.85624 29.5544 0 38.1328 0C46.7112 0 52.7949 5.83363 52.7949 14C52.7949 22.1663 46.6923 28 38.1328 28ZM38.1328 21.1677C42.1974 21.1677 45.1374 18.1717 45.1374 14C45.1374 9.82825 42.1974 6.8323 38.1328 6.8323C34.0682 6.8323 31.0867 9.85086 31.0867 14C31.0867 18.1491 34.072 21.1677 38.1328 21.1677Z" fill="var(--fill-0, #4AB3BC)"/>
<path d="M81.1303 13.9774C81.1303 21.7556 75.4089 27.3254 67.3513 27.3254H56.5463V0.670782H67.3513C75.4315 0.670782 81.1303 6.18787 81.1303 13.9774ZM73.5936 13.9774C73.5936 10.0242 70.9593 7.39758 67.0041 7.39758H63.9321V20.6024H67.0041C70.9556 20.6024 73.5936 17.9117 73.5936 13.9774Z" fill="var(--fill-0, #4AB3BC)"/>
<path d="M97.1133 16.898V27.3217H89.6219V16.8754L80.3604 0.66701H88.5161L93.3959 10.2993L98.2758 0.66701H106.431L97.1096 16.898H97.1133Z" fill="var(--fill-0, #4AB3BC)"/>
<path d="M115.742 19.4907H117.01C117.01 23.6888 120.241 26.4096 125.105 26.4096C129.54 26.4096 132.646 23.8772 132.646 20.1464C132.646 15.9181 128.898 15.1117 124.905 14.2261C120.758 13.3216 116.327 12.3305 116.327 7.39C116.327 3.11651 119.712 0.354204 124.905 0.354204C130.098 0.354204 133.219 3.2974 133.219 7.77062H131.982C131.982 4.00211 129.132 1.56388 124.89 1.56388C120.648 1.56388 117.58 3.84005 117.58 7.3523C117.58 11.3884 121.354 12.1986 125.283 13.054C129.506 13.9962 133.929 14.9948 133.929 20.1351C133.929 24.6648 130.261 27.6344 125.12 27.6344C119.497 27.6344 115.749 24.4086 115.749 19.4869L115.742 19.4907Z" fill="var(--fill-0, #4AB3BC)"/>
<path d="M172.998 0.670782L164.438 27.3254H163.408L154.871 4.26218L146.474 27.3254H145.444L136.692 0.670782H138.028L145.995 25.1397L154.531 1.66945H155.181L163.876 25.1435L171.673 0.670782H172.998Z" fill="var(--fill-0, #4AB3BC)"/>
<path d="M178.315 0.670782H179.565V27.3254H178.315V0.670782Z" fill="var(--fill-0, #4AB3BC)"/>
<path d="M194.457 1.86164V27.3254H193.208V1.86164H184.505V0.670782H203.164V1.86164H194.457Z" fill="var(--fill-0, #4AB3BC)"/>
<path d="M204.771 14.0264C204.771 6.05975 210.444 0.278866 218.377 0.278866C224.249 0.278866 228.846 3.49715 230.676 8.69392H229.382C227.608 4.2094 223.566 1.5074 218.38 1.5074C211.21 1.5074 206.043 6.73431 206.043 14.0264C206.043 21.3184 211.183 26.4888 218.38 26.4888C223.709 26.4888 227.846 23.6323 229.612 18.835H230.88C229.08 24.3558 224.396 27.7174 218.38 27.7174C210.421 27.7174 204.775 21.9968 204.775 14.0301L204.771 14.0264Z" fill="var(--fill-0, #4AB3BC)"/>
<path d="M256 0.670782V27.3254H254.751V14.0264H237.677V27.3254H236.428V0.670782H237.677V12.8167H254.751V0.670782H256Z" fill="var(--fill-0, #4AB3BC)"/>
</g>
</g>
</svg>
